<?xml version="1.0" encoding="utf-8"?>
<!-- Generator: Adobe Illustrator 25.0.0, SVG Export Plug-In . SVG Version: 6.00 Build 0)  -->
<svg version="1.1" xmlns="http://www.w3.org/2000/svg" xmlns:xlink="http://www.w3.org/1999/xlink" x="0px" y="0px"
	 viewBox="0 0 292.73 94.07" style="enable-background:new 0 0 292.73 94.07;" xml:space="preserve">
<style type="text/css">
	.st0{fill:#BFBDBA;}
</style>
<g id="Layer_1">
</g>
<g id="Layer_3">
</g>
<g id="Layer_2">
	<g>
		<g>
			<path class="st0" d="M48.36,3.5C25.13,3.5,6.09,21.42,4.28,44.19l23.71,9.8c2.01-1.37,4.44-2.18,7.05-2.18
				c0.23,0,0.47,0.01,0.7,0.02l10.54-15.28c0-0.07,0-0.14,0-0.22c0-9.2,7.48-16.68,16.68-16.68c9.2,0,16.68,7.48,16.68,16.68
				c0,9.2-7.48,16.68-16.68,16.68c-0.13,0-0.25,0-0.38-0.01L47.54,63.74c0.01,0.2,0.02,0.39,0.02,0.59
				c0,6.91-5.62,12.52-12.52,12.52c-6.06,0-11.13-4.33-12.28-10.05L5.8,59.79c5.25,18.57,22.31,32.18,42.56,32.18
				c24.43,0,44.24-19.81,44.24-44.24C92.6,23.31,72.79,3.5,48.36,3.5"/>
			<path class="st0" d="M32,70.62l-5.43-2.25c0.96,2,2.63,3.68,4.84,4.61c4.78,1.99,10.29-0.28,12.29-5.06
				c0.96-2.31,0.97-4.87,0.01-7.19c-0.96-2.32-2.76-4.13-5.07-5.1c-2.3-0.96-4.76-0.92-6.93-0.11l5.61,2.32
				c3.53,1.47,5.19,5.52,3.73,9.05C39.58,70.43,35.53,72.09,32,70.62"/>
			<path class="st0" d="M74.08,36.33c0-6.13-4.99-11.12-11.12-11.12c-6.13,0-11.12,4.99-11.12,11.12c0,6.13,4.99,11.11,11.12,11.11
				C69.09,47.45,74.08,42.46,74.08,36.33 M54.63,36.32c0-4.61,3.74-8.35,8.35-8.35c4.61,0,8.35,3.74,8.35,8.35
				c0,4.61-3.74,8.35-8.35,8.35C58.37,44.67,54.63,40.93,54.63,36.32"/>
		</g>
		<path class="st0" d="M96.38,16.41c0,2.65-1.98,4.3-4.25,4.3c-2.27,0-4.27-1.65-4.27-4.3c0-2.65,2-4.28,4.27-4.28
			C94.4,12.12,96.38,13.76,96.38,16.41 M88.5,16.41c0,2.26,1.65,3.68,3.62,3.68c1.97,0,3.61-1.42,3.61-3.68
			c0-2.27-1.64-3.67-3.61-3.67C90.16,12.74,88.5,14.15,88.5,16.41 M92.17,14.22c1.13,0,1.46,0.59,1.46,1.2
			c0,0.58-0.35,0.97-0.76,1.17l0.99,1.87h-0.75l-0.85-1.67h-0.91v1.67h-0.62v-4.23H92.17z M91.35,16.21h0.78
			c0.51,0,0.83-0.33,0.83-0.73c0-0.4-0.21-0.67-0.82-0.67h-0.79V16.21z"/>
		<g>
			<path class="st0" d="M136.47,44.65c-2.27,6.12-7.24,10.13-13.11,12.2c-0.54-1.12-1.7-2.9-2.65-3.76c3.6-1.03,6.95-3.06,9.14-5.63
				h-7.24v-3.89h10.05l0.79-0.12L136.47,44.65z M121.45,65.08c1.7-1.57,3.39-4.01,4.47-6l4.22,2.11c-1.2,2.03-2.73,4.55-4.34,6.29
				L121.45,65.08z M130.02,35.18h-8.23v-4.26h8.23v-2.28h5.01v2.28h10.42v-2.28h5.01v2.28h8.15v4.26h-8.15v2.15h-5.01v-2.15h-10.42
				v2.15h-5.01V35.18z M127.45,55.03h24.53v4.1h-24.53V55.03z M156.16,45.23c-1.86,1.45-3.85,2.81-5.59,3.81
				c2.52,1.24,5.46,2.19,8.48,2.77c-1.03,0.95-2.4,2.9-3.1,4.14c-5.29-1.41-10.05-4.14-13.44-7.82v1.99c0,2.03-0.33,2.94-1.78,3.52
				c-1.32,0.54-3.14,0.58-5.46,0.58c-0.25-1.2-0.87-2.69-1.41-3.76c1.37,0.08,2.85,0.08,3.27,0.08c0.46-0.04,0.62-0.12,0.62-0.58
				v-5.83c1.41-0.62,2.85-1.45,4.26-2.32h-14.23v-3.72h19.28l0.99-0.25l2.98,2.52c-1.9,1.49-4.18,3.06-6.58,4.38
				c0.7,0.79,1.57,1.53,2.52,2.23c1.78-1.28,3.97-3.06,5.25-4.38L156.16,45.23z M137.05,60.12c0.7,1.99,1.24,4.63,1.28,6.29
				l-4.88,0.75c0.04-1.66-0.37-4.34-0.95-6.41L137.05,60.12z M145.7,59.58c1.16,1.86,2.27,4.3,2.61,6l-4.51,1.41
				c-0.29-1.65-1.28-4.22-2.36-6.12L145.7,59.58z M154.09,59.04c1.86,1.82,4.05,4.38,5.09,6.21l-4.43,2.07
				c-0.91-1.78-2.98-4.47-4.8-6.37L154.09,59.04z"/>
			<path class="st0" d="M169.15,48.12c-1.57-1.12-4.84-2.9-7.16-4.09l2.61-3.64c2.23,0.91,5.58,2.56,7.32,3.64L169.15,48.12z
				 M163.36,63.26c2.03-3.06,4.92-8.07,7.16-12.74l3.72,3.19c-1.94,4.22-4.34,8.81-6.58,12.74L163.36,63.26z M171.38,37.24
				c-1.49-1.28-4.67-3.14-6.95-4.38l2.73-3.56c2.23,1.03,5.46,2.73,7.07,3.93L171.38,37.24z M179,39.39
				c-0.91,1.32-1.86,2.48-2.81,3.52c-0.91-0.87-2.85-2.36-3.93-3.02c2.98-2.69,5.63-6.99,7.07-11.34l4.72,1.28
				c-0.41,0.99-0.83,2.03-1.32,3.06h18.08v4.22h-20.31c-0.46,0.74-0.91,1.45-1.41,2.15h17.95v3.97H179V39.39z M196.33,45.56
				c-0.08,10.05-0.04,17.13,1.41,17.13c0.5,0,0.66-2.23,0.7-5.29c0.83,1.08,1.99,2.32,2.9,3.06c-0.33,4.67-1.12,6.83-3.97,6.87
				c-4.96-0.04-5.63-6.87-5.79-17.5h-16.59v-4.3h19.28v0.04H196.33z"/>
			<path class="st0" d="M241.71,53.58h-16.26v13.65h-5.13V53.58h-16.09v-5.01h16.09V36.04h-13.94v-4.88h32.93v4.88h-13.86v12.53
				h16.26V53.58z M213.41,37.37c1.37,2.65,2.85,6.12,3.31,8.44l-4.8,1.49c-0.41-2.19-1.7-5.83-3.02-8.6L213.41,37.37z M228.76,45.97
				c1.32-2.4,2.81-6.04,3.6-8.73l5.25,1.32c-1.49,3.19-3.19,6.54-4.55,8.65L228.76,45.97z"/>
			<path class="st0" d="M271.49,32.4c3.81,3.56,8.73,8.65,10.88,12.12l-4.18,3.02c-0.54-0.91-1.28-1.99-2.15-3.14
				c-21.97,1.08-24.9,1.16-27.09,1.9c-0.25-0.99-1.03-3.43-1.61-4.72c1.08-0.29,2.07-1.08,3.43-2.4c1.45-1.28,5.96-6.29,8.77-11.25
				l4.96,2.11c-2.61,3.85-5.87,7.53-9.02,10.55l16.96-0.54c-1.61-1.82-3.27-3.56-4.8-5.09L271.49,32.4z M250.31,49.03h27.88v18.12
				h-5.29v-2.07h-17.54v2.11h-5.05V49.03z M255.35,53.75v6.62h17.54v-6.62H255.35z"/>
		</g>
		<g>
			<path class="st0" d="M283.06,26.98h-1.2v-0.43h2.92v0.43h-1.21v3.52h-0.52V26.98z"/>
			<path class="st0" d="M288.55,28.76c-0.03-0.55-0.06-1.21-0.06-1.71h-0.02c-0.13,0.46-0.3,0.96-0.5,1.5l-0.7,1.92h-0.39
				l-0.64-1.88c-0.19-0.56-0.35-1.07-0.46-1.54h-0.01c-0.01,0.49-0.04,1.15-0.08,1.75l-0.11,1.69h-0.49l0.28-3.95h0.65l0.67,1.91
				c0.16,0.49,0.3,0.92,0.4,1.33h0.02c0.1-0.4,0.24-0.83,0.42-1.33l0.7-1.91h0.65l0.25,3.95h-0.5L288.55,28.76z"/>
		</g>
	</g>
</g>
</svg>
